<?xml version="1.0" standalone="no"?>
<!DOCTYPE svg PUBLIC "-//W3C//DTD SVG 20010904//EN"
 "http://www.w3.org/TR/2001/REC-SVG-20010904/DTD/svg10.dtd">
<svg version="1.0" xmlns="http://www.w3.org/2000/svg"
 width="319.000000pt" height="229.000000pt" viewBox="0 0 319.000000 229.000000"
 preserveAspectRatio="xMidYMid meet">

<g transform="translate(0.000000,229.000000) scale(0.100000,-0.100000)"
fill="#000000" stroke="none">
<path d="M1506 1874 c-94 -75 -173 -99 -321 -99 -125 0 -197 19 -298 80 -32
19 -62 35 -68 35 -5 0 -9 -180 -9 -470 0 -518 4 -563 61 -688 97 -215 356
-433 655 -550 l50 -20 92 38 c272 114 498 303 598 499 72 142 74 157 74 699
l0 483 -22 -6 c-13 -4 -42 -18 -66 -32 -195 -112 -467 -91 -624 47 -26 22 -48
40 -50 39 -1 0 -34 -25 -72 -55z m187 -178 c141 -74 357 -53 480 45 l38 31 -3
-434 c-3 -415 -5 -436 -26 -499 -44 -132 -153 -264 -303 -366 -85 -59 -212
-124 -276 -143 -41 -13 -44 -12 -156 43 -270 132 -449 324 -493 529 -10 47
-13 164 -14 461 0 218 2 397 4 397 3 0 24 -13 48 -29 85 -56 152 -75 273 -75
104 -1 114 1 175 31 36 17 81 48 100 67 l34 36 36 -34 c19 -19 56 -46 83 -60z"/>
<path d="M1545 1740 c-22 -24 -91 -64 -139 -80 -120 -39 -242 -29 -363 30 -44
22 -84 40 -88 40 -4 0 -5 -181 -3 -402 4 -380 6 -407 26 -468 60 -182 224
-351 451 -465 133 -67 141 -68 220 -35 193 79 373 222 464 367 15 24 39 78 54
120 l27 78 4 403 c1 221 -1 402 -5 402 -4 0 -21 -8 -38 -18 -175 -105 -383
-99 -532 15 -51 39 -54 39 -78 13z m49 -125 c6 -30 6 -30 -8 -6 -7 13 -15 20
-18 15 -3 -5 -3 -3 -1 4 1 8 3 21 3 30 1 15 2 15 9 2 5 -8 11 -28 15 -45z
m-74 -42 c11 -10 20 -27 19 -38 0 -19 -1 -19 -9 1 -5 12 -19 29 -32 38 -12 9
-17 16 -10 16 6 0 21 -8 32 -17z m126 -6 c-27 -22 -28 -26 -18 -57 16 -44 16
-44 -17 -21 -36 26 -36 26 -71 1 -28 -20 -28 -20 -23 0 3 11 9 18 13 15 4 -2
15 2 26 9 15 12 22 11 42 -2 23 -15 23 -14 16 11 -5 21 -1 31 17 47 13 10 29
19 34 20 6 0 -3 -11 -19 -23z m-331 -317 c33 -13 55 -64 55 -130 l0 -51 -37 3
c-37 3 -38 4 -41 48 -5 69 -41 95 -63 46 -18 -38 -3 -71 57 -137 88 -96 112
-177 81 -269 -25 -74 -139 -91 -191 -29 -16 19 -27 47 -31 83 -10 80 -6 90 38
94 37 3 37 3 38 -35 2 -73 12 -98 38 -98 18 0 27 8 34 29 15 44 -6 95 -68 163
-60 67 -85 115 -85 163 0 42 23 94 51 114 26 18 84 21 124 6z m310 0 c33 -13
55 -64 55 -130 l0 -51 -37 3 c-37 3 -38 4 -41 48 -5 69 -41 95 -63 46 -18 -38
-3 -71 57 -137 75 -81 98 -135 91 -209 -6 -70 -28 -105 -72 -120 -82 -27 -149
20 -160 114 -10 79 -6 90 36 94 l36 3 6 -61 c4 -34 9 -66 13 -71 11 -19 45 -9
54 17 17 45 1 92 -54 156 -92 107 -113 168 -82 242 8 18 24 41 37 50 26 18 84
21 124 6z m320 -32 c14 -84 75 -488 75 -502 0 -12 -10 -16 -40 -16 -37 0 -40
2 -40 28 0 61 -9 72 -55 72 l-42 0 -7 -50 -7 -50 -39 0 c-22 0 -40 3 -40 8 0
14 72 517 75 530 3 7 24 12 59 12 54 0 55 0 61 -32z"/>
<path d="M1880 1114 c0 -15 -19 -175 -25 -211 -6 -32 -5 -33 30 -33 19 0 35 4
35 8 0 20 -32 238 -36 241 -2 2 -4 0 -4 -5z"/>
</g>
</svg>
